<svg width="241" height="321" viewBox="0 0 241 321" fill="none" xmlns="http://www.w3.org/2000/svg" xmlns:xlink="http://www.w3.org/1999/xlink">
<g clip-path="url(#clip0_4604_1976)">
<rect x="0.960693" y="0.406982" width="240" height="320" rx="4" fill="url(#paint0_radial_4604_1976)" style=""/>
<path opacity="0.5" d="M0.960693 0.406982L25.9607 0.406982L25.9607 320.407H0.960693L0.960693 0.406982Z" fill="url(#paint1_linear_4604_1976)" style=""/>
<path opacity="0.5" d="M0.960693 0.406982L25.9607 0.406982L25.9607 320.407H0.960693L0.960693 0.406982Z" fill="url(#paint2_linear_4604_1976)" style=""/>
<path d="M24.4604 0.406982L32.4604 0.406982L32.4604 320.407H24.4604L24.4604 0.406982Z" fill="url(#paint3_linear_4604_1976)" style=""/>
<g opacity="0.1" filter="url(#filter0_f_4604_1976)">
<rect x="24.9607" y="0.406982" width="216" height="320" fill="white" style="fill:white;fill-opacity:1;"/>
</g>
<g filter="url(#filter1_di_4604_1976)">
<rect x="197.461" y="20.407" width="24" height="24" rx="2" fill="#191919" style="fill:#191919;fill:color(display-p3 0.0980 0.0980 0.0980);fill-opacity:1;" shape-rendering="crispEdges"/>
<rect x="197.711" y="20.657" width="23.5" height="23.5" rx="1.75" stroke="black" stroke-opacity="0.4" style="stroke:black;stroke-opacity:0.4;" stroke-width="0.5" shape-rendering="crispEdges"/>
<path fill-rule="evenodd" clip-rule="evenodd" d="M210.361 29.6348V26.4067H208.561V29.6348L209.461 30.8708L210.361 29.6348Z" fill="white" style="fill:white;fill-opacity:1;"/>
<path fill-rule="evenodd" clip-rule="evenodd" d="M208.561 35.1789V38.4069H210.361V35.1789L209.461 33.9429L208.561 35.1789Z" fill="white" style="fill:white;fill-opacity:1;"/>
<path fill-rule="evenodd" clip-rule="evenodd" d="M210.361 35.1793L212.257 37.7953L213.721 36.7273L211.813 34.1233L210.361 33.6433V35.1793Z" fill="#3EC6EB" style="fill:#3EC6EB;fill:color(display-p3 0.2431 0.7765 0.9216);fill-opacity:1;"/>
<path fill-rule="evenodd" clip-rule="evenodd" d="M208.561 29.6351L206.665 27.019L205.201 28.0871L207.109 30.6911L208.561 31.1711V29.6351Z" fill="#3EC6EB" style="fill:#3EC6EB;fill:color(display-p3 0.2431 0.7765 0.9216);fill-opacity:1;"/>
<path fill-rule="evenodd" clip-rule="evenodd" d="M207.109 30.6911L204.037 29.6951L203.473 31.4111L206.545 32.4071L208.009 31.9391L207.109 30.6911Z" fill="#FF44DD" style="fill:#FF44DD;fill:color(display-p3 1.0000 0.2667 0.8667);fill-opacity:1;"/>
<path fill-rule="evenodd" clip-rule="evenodd" d="M210.913 32.8747L211.813 34.1228L214.885 35.1188L215.449 33.4027L212.377 32.4067L210.913 32.8747Z" fill="#FF44DD" style="fill:#FF44DD;fill:color(display-p3 1.0000 0.2667 0.8667);fill-opacity:1;"/>
<path fill-rule="evenodd" clip-rule="evenodd" d="M212.377 32.4071L215.449 31.4111L214.885 29.6951L211.813 30.6911L210.913 31.9391L212.377 32.4071Z" fill="#635DFF" style="fill:#635DFF;fill:color(display-p3 0.3882 0.3647 1.0000);fill-opacity:1;"/>
<path fill-rule="evenodd" clip-rule="evenodd" d="M206.545 32.4067L203.473 33.4027L204.037 35.1188L207.109 34.1228L208.009 32.8747L206.545 32.4067Z" fill="#635DFF" style="fill:#635DFF;fill:color(display-p3 0.3882 0.3647 1.0000);fill-opacity:1;"/>
<path fill-rule="evenodd" clip-rule="evenodd" d="M207.109 34.1233L205.201 36.7273L206.665 37.7953L208.561 35.1793V33.6433L207.109 34.1233Z" fill="#FF4F40" style="fill:#FF4F40;fill:color(display-p3 1.0000 0.3098 0.2510);fill-opacity:1;"/>
<path fill-rule="evenodd" clip-rule="evenodd" d="M211.813 30.6911L213.721 28.0871L212.257 27.019L210.361 29.6351V31.1711L211.813 30.6911Z" fill="#FF4F40" style="fill:#FF4F40;fill:color(display-p3 1.0000 0.3098 0.2510);fill-opacity:1;"/>
</g>
<rect x="44.9607" y="22.407" width="38.4615" height="38.4615" rx="4" fill="#F4D594" fill-opacity="0.2" style="fill:#F4D594;fill:color(display-p3 0.9569 0.8353 0.5804);fill-opacity:0.2;"/>
<rect x="45.4607" y="22.907" width="37.4615" height="37.4615" rx="3.5" stroke="#F4D594" stroke-opacity="0.6" style="stroke:#F4D594;stroke:color(display-p3 0.9569 0.8353 0.5804);stroke-opacity:0.6;"/>
<rect x="44.9607" y="22.407" width="53.8462" height="53.8462" rx="4" fill="#F4D594" fill-opacity="0.2" style="fill:#F4D594;fill:color(display-p3 0.9569 0.8353 0.5804);fill-opacity:0.2;"/>
<rect x="45.4607" y="22.907" width="52.8462" height="52.8462" rx="3.5" stroke="#F4D594" stroke-opacity="0.6" style="stroke:#F4D594;stroke:color(display-p3 0.9569 0.8353 0.5804);stroke-opacity:0.6;"/>
<rect x="44.9607" y="22.407" width="69.2308" height="69.2308" rx="4" fill="#F4D594" fill-opacity="0.2" style="fill:#F4D594;fill:color(display-p3 0.9569 0.8353 0.5804);fill-opacity:0.2;"/>
<rect x="45.4607" y="22.907" width="68.2308" height="68.2308" rx="3.5" stroke="#F4D594" stroke-opacity="0.6" style="stroke:#F4D594;stroke:color(display-p3 0.9569 0.8353 0.5804);stroke-opacity:0.6;"/>
<rect x="44.9607" y="22.407" width="84.6154" height="84.6154" rx="4" fill="#F4D594" fill-opacity="0.2" style="fill:#F4D594;fill:color(display-p3 0.9569 0.8353 0.5804);fill-opacity:0.2;"/>
<rect x="45.4607" y="22.907" width="83.6154" height="83.6154" rx="3.5" stroke="#F4D594" stroke-opacity="0.6" style="stroke:#F4D594;stroke:color(display-p3 0.9569 0.8353 0.5804);stroke-opacity:0.6;"/>
<rect x="44.9607" y="22.407" width="100" height="100" rx="4" fill="#F4D594" fill-opacity="0.2" style="fill:#F4D594;fill:color(display-p3 0.9569 0.8353 0.5804);fill-opacity:0.2;"/>
<rect x="45.4607" y="22.907" width="99" height="99" rx="3.5" stroke="#F4D594" stroke-opacity="0.6" style="stroke:#F4D594;stroke:color(display-p3 0.9569 0.8353 0.5804);stroke-opacity:0.6;"/>
<g opacity="0.76" filter="url(#filter2_di_4604_1976)">
<mask id="path-28-outside-1_4604_1976" maskUnits="userSpaceOnUse" x="44.9607" y="223.407" width="139" height="16" fill="black">
<rect fill="white" x="44.9607" y="223.407" width="139" height="16"/>
<path d="M48.8007 234.587V224.407H51.1007V234.927C51.1007 237.167 49.8407 238.407 47.6007 238.407H45.4407V236.367H47.0807C48.3007 236.367 48.8007 235.807 48.8007 234.587ZM56.5826 238.407L52.6026 224.407L54.9826 224.387L57.9626 235.487L61.0826 224.407H63.2626L66.3026 235.487L69.3026 224.407H71.6626L67.6426 238.407H64.9626L62.1026 228.107L59.2826 238.407H56.5826ZM72.1771 226.447V224.407H83.1171V226.447H78.7971V238.407H76.4971V226.447H72.1771ZM89.9126 238.407V224.407H92.2126V230.287H98.7126V224.407H101.013V238.407H98.7126V232.327H92.2126V238.407H89.9126ZM112.705 236.527H113.145V238.407H112.005C110.605 238.407 110.125 237.787 110.125 236.767C109.445 237.807 108.405 238.527 106.745 238.527C104.505 238.527 102.945 237.427 102.945 235.527C102.945 233.427 104.465 232.247 107.325 232.247H109.905V231.627C109.905 230.487 109.085 229.787 107.665 229.787C106.385 229.787 105.525 230.387 105.365 231.287H103.245C103.465 229.287 105.185 228.047 107.765 228.047C110.485 228.047 112.045 229.347 112.045 231.767V235.867C112.045 236.387 112.265 236.527 112.705 236.527ZM109.905 234.207V233.847H107.225C105.885 233.847 105.145 234.347 105.145 235.387C105.145 236.247 105.865 236.847 107.045 236.847C108.845 236.847 109.885 235.787 109.905 234.207ZM119.721 228.047C121.981 228.047 123.841 229.287 123.841 232.707V238.407H121.661V232.887C121.661 230.947 120.841 229.907 119.221 229.907C117.501 229.907 116.481 231.167 116.481 233.247V238.407H114.321V228.167H116.201L116.441 229.507C117.081 228.707 118.061 228.047 119.721 228.047ZM133.508 229.587V224.407H135.668V238.407H133.788L133.528 236.867C132.868 237.767 131.808 238.527 130.188 238.527C127.408 238.527 125.348 236.567 125.348 233.287C125.348 230.127 127.408 228.047 130.188 228.047C131.748 228.047 132.848 228.687 133.508 229.587ZM130.548 236.707C132.348 236.707 133.528 235.307 133.528 233.327C133.528 231.287 132.348 229.887 130.548 229.887C128.748 229.887 127.568 231.287 127.568 233.287C127.568 235.307 128.748 236.707 130.548 236.707ZM143.259 228.047C146.059 228.047 148.099 229.987 148.099 233.287C148.099 236.427 146.059 238.527 143.259 238.527C141.659 238.527 140.559 237.847 139.919 236.927L139.659 238.407H137.779V224.407H139.939V229.687C140.619 228.767 141.679 228.047 143.259 228.047ZM142.899 236.707C144.699 236.707 145.899 235.307 145.899 233.287C145.899 231.287 144.699 229.887 142.899 229.887C141.099 229.887 139.919 231.287 139.919 233.267C139.919 235.287 141.099 236.707 142.899 236.707ZM154.669 238.527C151.549 238.527 149.449 236.427 149.449 233.287C149.449 230.167 151.549 228.047 154.669 228.047C157.789 228.047 159.889 230.167 159.889 233.287C159.889 236.427 157.789 238.527 154.669 238.527ZM154.669 236.687C156.489 236.687 157.689 235.267 157.689 233.287C157.689 231.307 156.489 229.887 154.669 229.887C152.849 229.887 151.669 231.307 151.669 233.287C151.669 235.267 152.849 236.687 154.669 236.687ZM166.466 238.527C163.346 238.527 161.246 236.427 161.246 233.287C161.246 230.167 163.346 228.047 166.466 228.047C169.586 228.047 171.686 230.167 171.686 233.287C171.686 236.427 169.586 238.527 166.466 238.527ZM166.466 236.687C168.286 236.687 169.486 235.267 169.486 233.287C169.486 231.307 168.286 229.887 166.466 229.887C164.646 229.887 163.466 231.307 163.466 233.287C163.466 235.267 164.646 236.687 166.466 236.687ZM173.423 238.407V224.407H175.583V233.127L180.223 228.167H182.763L178.903 232.307L183.003 238.407H180.443L177.423 233.887L175.583 235.807V238.407H173.423Z"/>
</mask>
<path d="M48.8007 234.587V224.407H51.1007V234.927C51.1007 237.167 49.8407 238.407 47.6007 238.407H45.4407V236.367H47.0807C48.3007 236.367 48.8007 235.807 48.8007 234.587ZM56.5826 238.407L52.6026 224.407L54.9826 224.387L57.9626 235.487L61.0826 224.407H63.2626L66.3026 235.487L69.3026 224.407H71.6626L67.6426 238.407H64.9626L62.1026 228.107L59.2826 238.407H56.5826ZM72.1771 226.447V224.407H83.1171V226.447H78.7971V238.407H76.4971V226.447H72.1771ZM89.9126 238.407V224.407H92.2126V230.287H98.7126V224.407H101.013V238.407H98.7126V232.327H92.2126V238.407H89.9126ZM112.705 236.527H113.145V238.407H112.005C110.605 238.407 110.125 237.787 110.125 236.767C109.445 237.807 108.405 238.527 106.745 238.527C104.505 238.527 102.945 237.427 102.945 235.527C102.945 233.427 104.465 232.247 107.325 232.247H109.905V231.627C109.905 230.487 109.085 229.787 107.665 229.787C106.385 229.787 105.525 230.387 105.365 231.287H103.245C103.465 229.287 105.185 228.047 107.765 228.047C110.485 228.047 112.045 229.347 112.045 231.767V235.867C112.045 236.387 112.265 236.527 112.705 236.527ZM109.905 234.207V233.847H107.225C105.885 233.847 105.145 234.347 105.145 235.387C105.145 236.247 105.865 236.847 107.045 236.847C108.845 236.847 109.885 235.787 109.905 234.207ZM119.721 228.047C121.981 228.047 123.841 229.287 123.841 232.707V238.407H121.661V232.887C121.661 230.947 120.841 229.907 119.221 229.907C117.501 229.907 116.481 231.167 116.481 233.247V238.407H114.321V228.167H116.201L116.441 229.507C117.081 228.707 118.061 228.047 119.721 228.047ZM133.508 229.587V224.407H135.668V238.407H133.788L133.528 236.867C132.868 237.767 131.808 238.527 130.188 238.527C127.408 238.527 125.348 236.567 125.348 233.287C125.348 230.127 127.408 228.047 130.188 228.047C131.748 228.047 132.848 228.687 133.508 229.587ZM130.548 236.707C132.348 236.707 133.528 235.307 133.528 233.327C133.528 231.287 132.348 229.887 130.548 229.887C128.748 229.887 127.568 231.287 127.568 233.287C127.568 235.307 128.748 236.707 130.548 236.707ZM143.259 228.047C146.059 228.047 148.099 229.987 148.099 233.287C148.099 236.427 146.059 238.527 143.259 238.527C141.659 238.527 140.559 237.847 139.919 236.927L139.659 238.407H137.779V224.407H139.939V229.687C140.619 228.767 141.679 228.047 143.259 228.047ZM142.899 236.707C144.699 236.707 145.899 235.307 145.899 233.287C145.899 231.287 144.699 229.887 142.899 229.887C141.099 229.887 139.919 231.287 139.919 233.267C139.919 235.287 141.099 236.707 142.899 236.707ZM154.669 238.527C151.549 238.527 149.449 236.427 149.449 233.287C149.449 230.167 151.549 228.047 154.669 228.047C157.789 228.047 159.889 230.167 159.889 233.287C159.889 236.427 157.789 238.527 154.669 238.527ZM154.669 236.687C156.489 236.687 157.689 235.267 157.689 233.287C157.689 231.307 156.489 229.887 154.669 229.887C152.849 229.887 151.669 231.307 151.669 233.287C151.669 235.267 152.849 236.687 154.669 236.687ZM166.466 238.527C163.346 238.527 161.246 236.427 161.246 233.287C161.246 230.167 163.346 228.047 166.466 228.047C169.586 228.047 171.686 230.167 171.686 233.287C171.686 236.427 169.586 238.527 166.466 238.527ZM166.466 236.687C168.286 236.687 169.486 235.267 169.486 233.287C169.486 231.307 168.286 229.887 166.466 229.887C164.646 229.887 163.466 231.307 163.466 233.287C163.466 235.267 164.646 236.687 166.466 236.687ZM173.423 238.407V224.407H175.583V233.127L180.223 228.167H182.763L178.903 232.307L183.003 238.407H180.443L177.423 233.887L175.583 235.807V238.407H173.423Z" fill="#4016A0" style="fill:#4016A0;fill:color(display-p3 0.2510 0.0863 0.6275);fill-opacity:1;" shape-rendering="crispEdges"/>
<path d="M48.8007 224.407V224.157H48.5507V224.407H48.8007ZM51.1007 224.407H51.3507V224.157H51.1007V224.407ZM45.4407 238.407H45.1907V238.657H45.4407V238.407ZM45.4407 236.367V236.117H45.1907V236.367H45.4407ZM48.8007 234.587H49.0507V224.407H48.8007H48.5507V234.587H48.8007ZM48.8007 224.407V224.657H51.1007V224.407V224.157H48.8007V224.407ZM51.1007 224.407H50.8507V234.927H51.1007H51.3507V224.407H51.1007ZM51.1007 234.927H50.8507C50.8507 236.001 50.5495 236.799 50.0147 237.329C49.4795 237.86 48.6757 238.157 47.6007 238.157V238.407V238.657C48.7656 238.657 49.7119 238.334 50.3667 237.685C51.0219 237.035 51.3507 236.093 51.3507 234.927H51.1007ZM47.6007 238.407V238.157H45.4407V238.407V238.657H47.6007V238.407ZM45.4407 238.407H45.6907V236.367H45.4407H45.1907V238.407H45.4407ZM45.4407 236.367V236.617H47.0807V236.367V236.117H45.4407V236.367ZM47.0807 236.367V236.617C47.7236 236.617 48.2349 236.47 48.5796 236.107C48.9215 235.746 49.0507 235.224 49.0507 234.587H48.8007H48.5507C48.5507 235.17 48.4299 235.538 48.2168 235.762C48.0065 235.984 47.6578 236.117 47.0807 236.117V236.367ZM56.5826 238.407L56.3421 238.475L56.3937 238.657H56.5826V238.407ZM52.6026 224.407L52.6005 224.157L52.2724 224.16L52.3621 224.475L52.6026 224.407ZM54.9826 224.387L55.224 224.322L55.1739 224.135L54.9805 224.137L54.9826 224.387ZM57.9626 235.487L57.7211 235.552L57.9568 236.43L58.2032 235.555L57.9626 235.487ZM61.0826 224.407V224.157H60.8932L60.8419 224.339L61.0826 224.407ZM63.2626 224.407L63.5037 224.341L63.4532 224.157H63.2626V224.407ZM66.3026 235.487L66.0615 235.553L66.3042 236.438L66.5439 235.552L66.3026 235.487ZM69.3026 224.407V224.157H69.1113L69.0613 224.342L69.3026 224.407ZM71.6626 224.407L71.9029 224.476L71.9945 224.157H71.6626V224.407ZM67.6426 238.407V238.657H67.8309L67.8829 238.476L67.6426 238.407ZM64.9626 238.407L64.7217 238.474L64.7725 238.657H64.9626V238.407ZM62.1026 228.107L62.3435 228.04L62.1009 227.166L61.8614 228.041L62.1026 228.107ZM59.2826 238.407V238.657H59.4733L59.5237 238.473L59.2826 238.407ZM56.5826 238.407L56.823 238.339L52.843 224.339L52.6026 224.407L52.3621 224.475L56.3421 238.475L56.5826 238.407ZM52.6026 224.407L52.6047 224.657L54.9847 224.637L54.9826 224.387L54.9805 224.137L52.6005 224.157L52.6026 224.407ZM54.9826 224.387L54.7411 224.452L57.7211 235.552L57.9626 235.487L58.204 235.422L55.224 224.322L54.9826 224.387ZM57.9626 235.487L58.2032 235.555L61.3232 224.475L61.0826 224.407L60.8419 224.339L57.7219 235.419L57.9626 235.487ZM61.0826 224.407V224.657H63.2626V224.407V224.157H61.0826V224.407ZM63.2626 224.407L63.0215 224.473L66.0615 235.553L66.3026 235.487L66.5437 235.421L63.5037 224.341L63.2626 224.407ZM66.3026 235.487L66.5439 235.552L69.5439 224.472L69.3026 224.407L69.0613 224.342L66.0613 235.422L66.3026 235.487ZM69.3026 224.407V224.657H71.6626V224.407V224.157H69.3026V224.407ZM71.6626 224.407L71.4223 224.338L67.4023 238.338L67.6426 238.407L67.8829 238.476L71.9029 224.476L71.6626 224.407ZM67.6426 238.407V238.157H64.9626V238.407V238.657H67.6426V238.407ZM64.9626 238.407L65.2035 238.34L62.3435 228.04L62.1026 228.107L61.8617 228.174L64.7217 238.474L64.9626 238.407ZM62.1026 228.107L61.8614 228.041L59.0414 238.341L59.2826 238.407L59.5237 238.473L62.3437 228.173L62.1026 228.107ZM59.2826 238.407V238.157H56.5826V238.407V238.657H59.2826V238.407ZM72.1771 226.447H71.9271V226.697H72.1771V226.447ZM72.1771 224.407V224.157H71.9271V224.407H72.1771ZM83.1171 224.407H83.3671V224.157H83.1171V224.407ZM83.1171 226.447V226.697H83.3671V226.447H83.1171ZM78.7971 226.447V226.197H78.5471V226.447H78.7971ZM78.7971 238.407V238.657H79.0471V238.407H78.7971ZM76.4971 238.407H76.2471V238.657H76.4971V238.407ZM76.4971 226.447H76.7471V226.197H76.4971V226.447ZM72.1771 226.447H72.4271V224.407H72.1771H71.9271V226.447H72.1771ZM72.1771 224.407V224.657H83.1171V224.407V224.157H72.1771V224.407ZM83.1171 224.407H82.8671V226.447H83.1171H83.3671V224.407H83.1171ZM83.1171 226.447V226.197H78.7971V226.447V226.697H83.1171V226.447ZM78.7971 226.447H78.5471V238.407H78.7971H79.0471V226.447H78.7971ZM78.7971 238.407V238.157H76.4971V238.407V238.657H78.7971V238.407ZM76.4971 238.407H76.7471V226.447H76.4971H76.2471V238.407H76.4971ZM76.4971 226.447V226.197H72.1771V226.447V226.697H76.4971V226.447ZM89.9126 238.407H89.6626V238.657H89.9126V238.407ZM89.9126 224.407V224.157H89.6626V224.407H89.9126ZM92.2126 224.407H92.4626V224.157H92.2126V224.407ZM92.2126 230.287H91.9626V230.537H92.2126V230.287ZM98.7126 230.287V230.537H98.9626V230.287H98.7126ZM98.7126 224.407V224.157H98.4626V224.407H98.7126ZM101.013 224.407H101.263V224.157H101.013V224.407ZM101.013 238.407V238.657H101.263V238.407H101.013ZM98.7126 238.407H98.4626V238.657H98.7126V238.407ZM98.7126 232.327H98.9626V232.077H98.7126V232.327ZM92.2126 232.327V232.077H91.9626V232.327H92.2126ZM92.2126 238.407V238.657H92.4626V238.407H92.2126ZM89.9126 238.407H90.1626V224.407H89.9126H89.6626V238.407H89.9126ZM89.9126 224.407V224.657H92.2126V224.407V224.157H89.9126V224.407ZM92.2126 224.407H91.9626V230.287H92.2126H92.4626V224.407H92.2126ZM92.2126 230.287V230.537H98.7126V230.287V230.037H92.2126V230.287ZM98.7126 230.287H98.9626V224.407H98.7126H98.4626V230.287H98.7126ZM98.7126 224.407V224.657H101.013V224.407V224.157H98.7126V224.407ZM101.013 224.407H100.763V238.407H101.013H101.263V224.407H101.013ZM101.013 238.407V238.157H98.7126V238.407V238.657H101.013V238.407ZM98.7126 238.407H98.9626V232.327H98.7126H98.4626V238.407H98.7126ZM98.7126 232.327V232.077H92.2126V232.327V232.577H98.7126V232.327ZM92.2126 232.327H91.9626V238.407H92.2126H92.4626V232.327H92.2126ZM92.2126 238.407V238.157H89.9126V238.407V238.657H92.2126V238.407ZM113.145 236.527H113.395V236.277H113.145V236.527ZM113.145 238.407V238.657H113.395V238.407H113.145ZM110.125 236.767H110.375V235.928L109.916 236.63L110.125 236.767ZM109.905 232.247V232.497H110.155V232.247H109.905ZM105.365 231.287V231.537H105.574L105.611 231.331L105.365 231.287ZM103.245 231.287L102.996 231.26L102.966 231.537H103.245V231.287ZM109.905 234.207L110.155 234.21V234.207H109.905ZM109.905 233.847H110.155V233.597H109.905V233.847ZM112.705 236.527V236.777H113.145V236.527V236.277H112.705V236.527ZM113.145 236.527H112.895V238.407H113.145H113.395V236.527H113.145ZM113.145 238.407V238.157H112.005V238.407V238.657H113.145V238.407ZM112.005 238.407V238.157C111.336 238.157 110.942 238.008 110.713 237.789C110.487 237.572 110.375 237.242 110.375 236.767H110.125H109.875C109.875 237.312 110.003 237.802 110.367 238.15C110.728 238.496 111.274 238.657 112.005 238.657V238.407ZM110.125 236.767L109.916 236.63C109.279 237.605 108.315 238.277 106.745 238.277V238.527V238.777C108.495 238.777 109.611 238.009 110.334 236.904L110.125 236.767ZM106.745 238.527V238.277C105.662 238.277 104.771 238.011 104.157 237.541C103.55 237.077 103.195 236.401 103.195 235.527H102.945H102.695C102.695 236.553 103.12 237.377 103.853 237.938C104.579 238.493 105.587 238.777 106.745 238.777V238.527ZM102.945 235.527H103.195C103.195 234.544 103.547 233.803 104.213 233.299C104.891 232.787 105.924 232.497 107.325 232.497V232.247V231.997C105.866 231.997 104.709 232.297 103.912 232.9C103.103 233.511 102.695 234.41 102.695 235.527H102.945ZM107.325 232.247V232.497H109.905V232.247V231.997H107.325V232.247ZM109.905 232.247H110.155V231.627H109.905H109.655V232.247H109.905ZM109.905 231.627H110.155C110.155 230.992 109.924 230.458 109.477 230.087C109.036 229.721 108.413 229.537 107.665 229.537V229.787V230.037C108.337 230.037 108.834 230.203 109.158 230.472C109.476 230.736 109.655 231.122 109.655 231.627H109.905ZM107.665 229.787V229.537C106.315 229.537 105.308 230.18 105.119 231.243L105.365 231.287L105.611 231.331C105.742 230.594 106.455 230.037 107.665 230.037V229.787ZM105.365 231.287V231.037H103.245V231.287V231.537H105.365V231.287ZM103.245 231.287L103.493 231.314C103.596 230.385 104.043 229.639 104.766 229.12C105.493 228.598 106.513 228.297 107.765 228.297V228.047V227.797C106.437 227.797 105.307 228.116 104.474 228.714C103.637 229.315 103.114 230.189 102.996 231.26L103.245 231.287ZM107.765 228.047V228.297C109.089 228.297 110.093 228.614 110.762 229.189C111.425 229.759 111.795 230.613 111.795 231.767H112.045H112.295C112.295 230.5 111.884 229.495 111.088 228.81C110.297 228.13 109.161 227.797 107.765 227.797V228.047ZM112.045 231.767H111.795V235.867H112.045H112.295V231.767H112.045ZM112.045 235.867H111.795C111.795 236.153 111.854 236.406 112.042 236.577C112.224 236.743 112.471 236.777 112.705 236.777V236.527V236.277C112.499 236.277 112.416 236.241 112.378 236.207C112.346 236.178 112.295 236.101 112.295 235.867H112.045ZM109.905 234.207H110.155V233.847H109.905H109.655V234.207H109.905ZM109.905 233.847V233.597H107.225V233.847V234.097H109.905V233.847ZM107.225 233.847V233.597C106.531 233.597 105.949 233.725 105.536 234.024C105.108 234.334 104.895 234.8 104.895 235.387H105.145H105.395C105.395 234.934 105.552 234.63 105.829 234.43C106.12 234.219 106.579 234.097 107.225 234.097V233.847ZM105.145 235.387H104.895C104.895 235.893 105.11 236.331 105.498 236.636C105.881 236.937 106.415 237.097 107.045 237.097V236.847V236.597C106.495 236.597 106.079 236.457 105.807 236.243C105.54 236.033 105.395 235.741 105.395 235.387H105.145ZM107.045 236.847V237.097C107.994 237.097 108.771 236.817 109.314 236.301C109.859 235.784 110.144 235.056 110.155 234.21L109.905 234.207L109.655 234.204C109.646 234.938 109.401 235.53 108.97 235.938C108.539 236.347 107.896 236.597 107.045 236.597V236.847ZM123.841 238.407V238.657H124.091V238.407H123.841ZM121.661 238.407H121.411V238.657H121.661V238.407ZM116.481 238.407V238.657H116.731V238.407H116.481ZM114.321 238.407H114.071V238.657H114.321V238.407ZM114.321 228.167V227.917H114.071V228.167H114.321ZM116.201 228.167L116.448 228.123L116.411 227.917H116.201V228.167ZM116.441 229.507L116.195 229.551L116.293 230.093L116.637 229.663L116.441 229.507ZM119.721 228.047V228.297C120.808 228.297 121.766 228.595 122.453 229.272C123.139 229.949 123.591 231.041 123.591 232.707H123.841H124.091C124.091 230.953 123.614 229.715 122.805 228.917C121.997 228.119 120.895 227.797 119.721 227.797V228.047ZM123.841 232.707H123.591V238.407H123.841H124.091V232.707H123.841ZM123.841 238.407V238.157H121.661V238.407V238.657H123.841V238.407ZM121.661 238.407H121.911V232.887H121.661H121.411V238.407H121.661ZM121.661 232.887H121.911C121.911 231.887 121.701 231.077 121.243 230.512C120.778 229.938 120.088 229.657 119.221 229.657V229.907V230.157C119.975 230.157 120.505 230.396 120.855 230.827C121.212 231.267 121.411 231.947 121.411 232.887H121.661ZM119.221 229.907V229.657C118.295 229.657 117.536 229.999 117.013 230.639C116.495 231.272 116.231 232.169 116.231 233.247H116.481H116.731C116.731 232.245 116.977 231.472 117.4 230.955C117.817 230.445 118.428 230.157 119.221 230.157V229.907ZM116.481 233.247H116.231V238.407H116.481H116.731V233.247H116.481ZM116.481 238.407V238.157H114.321V238.407V238.657H116.481V238.407ZM114.321 238.407H114.571V228.167H114.321H114.071V238.407H114.321ZM114.321 228.167V228.417H116.201V228.167V227.917H114.321V228.167ZM116.201 228.167L115.955 228.211L116.195 229.551L116.441 229.507L116.688 229.463L116.448 228.123L116.201 228.167ZM116.441 229.507L116.637 229.663C117.232 228.918 118.142 228.297 119.721 228.297V228.047V227.797C117.981 227.797 116.93 228.496 116.246 229.351L116.441 229.507ZM133.508 229.587L133.306 229.735L133.758 230.351V229.587H133.508ZM133.508 224.407V224.157H133.258V224.407H133.508ZM135.668 224.407H135.918V224.157H135.668V224.407ZM135.668 238.407V238.657H135.918V238.407H135.668ZM133.788 238.407L133.541 238.449L133.576 238.657H133.788V238.407ZM133.528 236.867L133.774 236.825L133.676 236.242L133.326 236.719L133.528 236.867ZM133.508 229.587H133.758V224.407H133.508H133.258V229.587H133.508ZM133.508 224.407V224.657H135.668V224.407V224.157H133.508V224.407ZM135.668 224.407H135.418V238.407H135.668H135.918V224.407H135.668ZM135.668 238.407V238.157H133.788V238.407V238.657H135.668V238.407ZM133.788 238.407L134.034 238.365L133.774 236.825L133.528 236.867L133.281 236.909L133.541 238.449L133.788 238.407ZM133.528 236.867L133.326 236.719C132.705 237.565 131.716 238.277 130.188 238.277V238.527V238.777C131.9 238.777 133.03 237.969 133.729 237.015L133.528 236.867ZM130.188 238.527V238.277C128.858 238.277 127.716 237.809 126.906 236.964C126.095 236.118 125.598 234.874 125.598 233.287H125.348H125.098C125.098 234.98 125.63 236.356 126.545 237.31C127.459 238.264 128.737 238.777 130.188 238.777V238.527ZM125.348 233.287H125.598C125.598 231.762 126.094 230.516 126.907 229.653C127.72 228.791 128.862 228.297 130.188 228.297V228.047V227.797C128.733 227.797 127.456 228.342 126.543 229.311C125.631 230.278 125.098 231.652 125.098 233.287H125.348ZM130.188 228.047V228.297C131.672 228.297 132.696 228.902 133.306 229.735L133.508 229.587L133.709 229.439C133 228.472 131.823 227.797 130.188 227.797V228.047ZM130.548 236.707V236.957C131.517 236.957 132.332 236.578 132.901 235.924C133.468 235.272 133.778 234.366 133.778 233.327H133.528H133.278C133.278 234.268 132.997 235.051 132.524 235.595C132.054 236.136 131.378 236.457 130.548 236.457V236.707ZM133.528 233.327H133.778C133.778 232.26 133.469 231.338 132.902 230.679C132.333 230.016 131.517 229.637 130.548 229.637V229.887V230.137C131.378 230.137 132.053 230.458 132.523 231.005C132.997 231.556 133.278 232.354 133.278 233.327H133.528ZM130.548 229.887V229.637C129.578 229.637 128.763 230.016 128.194 230.673C127.627 231.327 127.318 232.239 127.318 233.287H127.568H127.818C127.818 232.335 128.098 231.547 128.572 231.001C129.042 230.458 129.717 230.137 130.548 230.137V229.887ZM127.568 233.287H127.318C127.318 234.344 127.627 235.261 128.193 235.918C128.763 236.578 129.578 236.957 130.548 236.957V236.707V236.457C129.717 236.457 129.042 236.136 128.572 235.591C128.099 235.043 127.818 234.249 127.818 233.287H127.568ZM139.919 236.927L140.124 236.784L139.777 236.286L139.672 236.884L139.919 236.927ZM139.659 238.407V238.657H139.868L139.905 238.45L139.659 238.407ZM137.779 238.407H137.529V238.657H137.779V238.407ZM137.779 224.407V224.157H137.529V224.407H137.779ZM139.939 224.407H140.189V224.157H139.939V224.407ZM139.939 229.687H139.689V230.446L140.14 229.836L139.939 229.687ZM143.259 228.047V228.297C144.599 228.297 145.741 228.76 146.548 229.602C147.356 230.445 147.849 231.689 147.849 233.287H148.099H148.349C148.349 231.585 147.821 230.209 146.909 229.257C145.996 228.304 144.718 227.797 143.259 227.797V228.047ZM148.099 233.287H147.849C147.849 234.802 147.357 236.048 146.546 236.914C145.736 237.778 144.593 238.277 143.259 238.277V238.527V238.777C144.724 238.777 146.001 238.226 146.911 237.255C147.82 236.286 148.349 234.912 148.349 233.287H148.099ZM143.259 238.527V238.277C141.738 238.277 140.715 237.635 140.124 236.784L139.919 236.927L139.713 237.07C140.402 238.059 141.579 238.777 143.259 238.777V238.527ZM139.919 236.927L139.672 236.884L139.412 238.364L139.659 238.407L139.905 238.45L140.165 236.97L139.919 236.927ZM139.659 238.407V238.157H137.779V238.407V238.657H139.659V238.407ZM137.779 238.407H138.029V224.407H137.779H137.529V238.407H137.779ZM137.779 224.407V224.657H139.939V224.407V224.157H137.779V224.407ZM139.939 224.407H139.689V229.687H139.939H140.189V224.407H139.939ZM139.939 229.687L140.14 229.836C140.779 228.971 141.768 228.297 143.259 228.297V228.047V227.797C141.589 227.797 140.458 228.563 139.737 229.538L139.939 229.687ZM142.899 236.707V236.957C143.868 236.957 144.688 236.578 145.262 235.919C145.834 235.263 146.149 234.346 146.149 233.287H145.899H145.649C145.649 234.248 145.363 235.041 144.885 235.59C144.409 236.136 143.729 236.457 142.899 236.457V236.707ZM145.899 233.287H146.149C146.149 232.238 145.833 231.326 145.262 230.672C144.687 230.016 143.868 229.637 142.899 229.637V229.887V230.137C143.729 230.137 144.41 230.458 144.885 231.002C145.364 231.548 145.649 232.336 145.649 233.287H145.899ZM142.899 229.887V229.637C141.929 229.637 141.114 230.016 140.545 230.67C139.978 231.321 139.669 232.228 139.669 233.267H139.919H140.169C140.169 232.326 140.449 231.542 140.922 230.999C141.393 230.458 142.068 230.137 142.899 230.137V229.887ZM139.919 233.267H139.669C139.669 234.324 139.978 235.246 140.544 235.907C141.113 236.572 141.928 236.957 142.899 236.957V236.707V236.457C142.069 236.457 141.394 236.132 140.923 235.582C140.449 235.028 140.169 234.23 140.169 233.267H139.919ZM154.669 238.527V238.277C153.167 238.277 151.928 237.772 151.066 236.908C150.204 236.043 149.699 234.8 149.699 233.287H149.449H149.199C149.199 234.914 149.744 236.291 150.712 237.261C151.68 238.232 153.052 238.777 154.669 238.777V238.527ZM149.449 233.287H149.699C149.699 231.784 150.204 230.541 151.067 229.673C151.929 228.806 153.167 228.297 154.669 228.297V228.047V227.797C153.051 227.797 151.68 228.348 150.712 229.321C149.745 230.293 149.199 231.67 149.199 233.287H149.449ZM154.669 228.047V228.297C156.171 228.297 157.41 228.806 158.272 229.673C159.135 230.541 159.639 231.784 159.639 233.287H159.889H160.139C160.139 231.67 159.594 230.293 158.627 229.321C157.659 228.348 156.287 227.797 154.669 227.797V228.047ZM159.889 233.287H159.639C159.639 234.8 159.134 236.043 158.272 236.908C157.41 237.772 156.172 238.277 154.669 238.277V238.527V238.777C156.287 238.777 157.658 238.232 158.626 237.261C159.594 236.291 160.139 234.914 160.139 233.287H159.889ZM154.669 236.687V236.937C155.649 236.937 156.473 236.553 157.05 235.894C157.624 235.238 157.939 234.327 157.939 233.287H157.689H157.439C157.439 234.227 157.155 235.016 156.674 235.565C156.195 236.111 155.51 236.437 154.669 236.437V236.687ZM157.689 233.287H157.939C157.939 232.247 157.624 231.336 157.05 230.68C156.473 230.021 155.649 229.637 154.669 229.637V229.887V230.137C155.51 230.137 156.195 230.463 156.674 231.009C157.155 231.558 157.439 232.347 157.439 233.287H157.689ZM154.669 229.887V229.637C153.69 229.637 152.87 230.021 152.298 230.681C151.729 231.337 151.419 232.248 151.419 233.287H151.669H151.919C151.919 232.346 152.2 231.557 152.676 231.008C153.149 230.463 153.829 230.137 154.669 230.137V229.887ZM151.669 233.287H151.419C151.419 234.326 151.729 235.237 152.298 235.893C152.87 236.553 153.69 236.937 154.669 236.937V236.687V236.437C153.829 236.437 153.149 236.111 152.676 235.566C152.2 235.017 151.919 234.228 151.919 233.287H151.669ZM166.466 238.527V238.277C164.964 238.277 163.725 237.772 162.863 236.908C162.001 236.043 161.496 234.8 161.496 233.287H161.246H160.996C160.996 234.914 161.541 236.291 162.509 237.261C163.477 238.232 164.849 238.777 166.466 238.777V238.527ZM161.246 233.287H161.496C161.496 231.784 162.001 230.541 162.863 229.673C163.726 228.806 164.964 228.297 166.466 228.297V228.047V227.797C164.848 227.797 163.476 228.348 162.509 229.321C161.541 230.293 160.996 231.67 160.996 233.287H161.246ZM166.466 228.047V228.297C167.968 228.297 169.206 228.806 170.069 229.673C170.931 230.541 171.436 231.784 171.436 233.287H171.686H171.936C171.936 231.67 171.391 230.293 170.423 229.321C169.456 228.348 168.084 227.797 166.466 227.797V228.047ZM171.686 233.287H171.436C171.436 234.8 170.931 236.043 170.069 236.908C169.207 237.772 167.969 238.277 166.466 238.277V238.527V238.777C168.084 238.777 169.455 238.232 170.423 237.261C171.391 236.291 171.936 234.914 171.936 233.287H171.686ZM166.466 236.687V236.937C167.446 236.937 168.27 236.553 168.847 235.894C169.421 235.238 169.736 234.327 169.736 233.287H169.486H169.236C169.236 234.227 168.951 235.016 168.471 235.565C167.992 236.111 167.307 236.437 166.466 236.437V236.687ZM169.486 233.287H169.736C169.736 232.247 169.421 231.336 168.847 230.68C168.27 230.021 167.446 229.637 166.466 229.637V229.887V230.137C167.307 230.137 167.992 230.463 168.471 231.009C168.951 231.558 169.236 232.347 169.236 233.287H169.486ZM166.466 229.887V229.637C165.486 229.637 164.667 230.021 164.095 230.681C163.526 231.337 163.216 232.248 163.216 233.287H163.466H163.716C163.716 232.346 163.996 231.557 164.473 231.008C164.946 230.463 165.626 230.137 166.466 230.137V229.887ZM163.466 233.287H163.216C163.216 234.326 163.526 235.237 164.095 235.893C164.667 236.553 165.486 236.937 166.466 236.937V236.687V236.437C165.626 236.437 164.946 236.111 164.473 235.566C163.996 235.017 163.716 234.228 163.716 233.287H163.466ZM173.423 238.407H173.173V238.657H173.423V238.407ZM173.423 224.407V224.157H173.173V224.407H173.423ZM175.583 224.407H175.833V224.157H175.583V224.407ZM175.583 233.127H175.333V233.76L175.766 233.298L175.583 233.127ZM180.223 228.167V227.917H180.115L180.04 227.996L180.223 228.167ZM182.763 228.167L182.946 228.337L183.338 227.917H182.763V228.167ZM178.903 232.307L178.72 232.136L178.585 232.282L178.696 232.446L178.903 232.307ZM183.003 238.407V238.657H183.472L183.211 238.268L183.003 238.407ZM180.443 238.407L180.235 238.546L180.309 238.657H180.443V238.407ZM177.423 233.887L177.631 233.748L177.458 233.489L177.243 233.714L177.423 233.887ZM175.583 235.807L175.403 235.634L175.333 235.707V235.807H175.583ZM175.583 238.407V238.657H175.833V238.407H175.583ZM173.423 238.407H173.673V224.407H173.423H173.173V238.407H173.423ZM173.423 224.407V224.657H175.583V224.407V224.157H173.423V224.407ZM175.583 224.407H175.333V233.127H175.583H175.833V224.407H175.583ZM175.583 233.127L175.766 233.298L180.406 228.338L180.223 228.167L180.04 227.996L175.4 232.956L175.583 233.127ZM180.223 228.167V228.417H182.763V228.167V227.917H180.223V228.167ZM182.763 228.167L182.58 227.996L178.72 232.136L178.903 232.307L179.086 232.477L182.946 228.337L182.763 228.167ZM178.903 232.307L178.696 232.446L182.796 238.546L183.003 238.407L183.211 238.268L179.111 232.168L178.903 232.307ZM183.003 238.407V238.157H180.443V238.407V238.657H183.003V238.407ZM180.443 238.407L180.651 238.268L177.631 233.748L177.423 233.887L177.215 234.026L180.235 238.546L180.443 238.407ZM177.423 233.887L177.243 233.714L175.403 235.634L175.583 235.807L175.764 235.98L177.604 234.06L177.423 233.887ZM175.583 235.807H175.333V238.407H175.583H175.833V235.807H175.583ZM175.583 238.407V238.157H173.423V238.407V238.657H175.583V238.407Z" fill="#191919" fill-opacity="0.04" style="fill:#191919;fill:color(display-p3 0.0980 0.0980 0.0980);fill-opacity:0.04;" mask="url(#path-28-outside-1_4604_1976)"/>
</g>
<rect opacity="0.76" x="44.9604" y="206.407" width="176" height="1" fill="#4016A0" style="fill:#4016A0;fill:color(display-p3 0.2510 0.0863 0.6275);fill-opacity:1;"/>
<g style="mix-blend-mode:plus-lighter" opacity="0.5">
<rect x="-49.5393" y="-95.593" width="341.25" height="512" fill="url(#pattern0_4604_1976)" style=""/>
</g>
</g>
<defs>
<filter id="filter0_f_4604_1976" x="22.9607" y="-1.59302" width="220" height="324" filterUnits="userSpaceOnUse" color-interpolation-filters="sRGB">
<feFlood flood-opacity="0" result="BackgroundImageFix"/>
<feBlend mode="normal" in="SourceGraphic" in2="BackgroundImageFix" result="shape"/>
<feGaussianBlur stdDeviation="1" result="effect1_foregroundBlur_4604_1976"/>
</filter>
<filter id="filter1_di_4604_1976" x="197.461" y="20.407" width="24.75" height="24.75" filterUnits="userSpaceOnUse" color-interpolation-filters="sRGB">
<feFlood flood-opacity="0" result="BackgroundImageFix"/>
<feColorMatrix in="SourceAlpha" type="matrix" values="0 0 0 0 0 0 0 0 0 0 0 0 0 0 0 0 0 0 127 0" result="hardAlpha"/>
<feOffset dx="0.5" dy="0.5"/>
<feGaussianBlur stdDeviation="0.125"/>
<feComposite in2="hardAlpha" operator="out"/>
<feColorMatrix type="matrix" values="0 0 0 0 1 0 0 0 0 1 0 0 0 0 1 0 0 0 0.2 0"/>
<feBlend mode="normal" in2="BackgroundImageFix" result="effect1_dropShadow_4604_1976"/>
<feBlend mode="normal" in="SourceGraphic" in2="effect1_dropShadow_4604_1976" result="shape"/>
<feColorMatrix in="SourceAlpha" type="matrix" values="0 0 0 0 0 0 0 0 0 0 0 0 0 0 0 0 0 0 127 0" result="hardAlpha"/>
<feOffset dy="0.5"/>
<feGaussianBlur stdDeviation="0.125"/>
<feComposite in2="hardAlpha" operator="arithmetic" k2="-1" k3="1"/>
<feColorMatrix type="matrix" values="0 0 0 0 1 0 0 0 0 1 0 0 0 0 1 0 0 0 0.2 0"/>
<feBlend mode="normal" in2="shape" result="effect2_innerShadow_4604_1976"/>
</filter>
<filter id="filter2_di_4604_1976" x="44.9407" y="224.135" width="138.782" height="15.3918" filterUnits="userSpaceOnUse" color-interpolation-filters="sRGB">
<feFlood flood-opacity="0" result="BackgroundImageFix"/>
<feColorMatrix in="SourceAlpha" type="matrix" values="0 0 0 0 0 0 0 0 0 0 0 0 0 0 0 0 0 0 127 0" result="hardAlpha"/>
<feOffset dy="0.5"/>
<feGaussianBlur stdDeviation="0.125"/>
<feComposite in2="hardAlpha" operator="out"/>
<feColorMatrix type="matrix" values="0 0 0 0 0.0980392 0 0 0 0 0.0980392 0 0 0 0 0.0980392 0 0 0 0.1 0"/>
<feBlend mode="normal" in2="BackgroundImageFix" result="effect1_dropShadow_4604_1976"/>
<feBlend mode="normal" in="SourceGraphic" in2="effect1_dropShadow_4604_1976" result="shape"/>
<feColorMatrix in="SourceAlpha" type="matrix" values="0 0 0 0 0 0 0 0 0 0 0 0 0 0 0 0 0 0 127 0" result="hardAlpha"/>
<feOffset dy="0.5"/>
<feGaussianBlur stdDeviation="0.125"/>
<feComposite in2="hardAlpha" operator="arithmetic" k2="-1" k3="1"/>
<feColorMatrix type="matrix" values="0 0 0 0 0.0980392 0 0 0 0 0.0980392 0 0 0 0 0.0980392 0 0 0 0.1 0"/>
<feBlend mode="normal" in2="shape" result="effect2_innerShadow_4604_1976"/>
</filter>
<pattern id="pattern0_4604_1976" patternContentUnits="objectBoundingBox" width="1" height="1">
<use xlink:href="#image0_4604_1976" transform="scale(0.0003663 0.000244141)"/>
</pattern>
<radialGradient id="paint0_radial_4604_1976" cx="0" cy="0" r="1" gradientUnits="userSpaceOnUse" gradientTransform="translate(240.961 320.407) rotate(-126.87) scale(400 400)">
<stop stop-color="#D8C2FF" style="stop-color:#D8C2FF;stop-color:color(display-p3 0.8471 0.7608 1.0000);stop-opacity:1;"/>
<stop offset="1" stop-color="#7549F2" style="stop-color:#7549F2;stop-color:color(display-p3 0.4579 0.2850 0.9500);stop-opacity:1;"/>
</radialGradient>
<linearGradient id="paint1_linear_4604_1976" x1="24.9607" y1="160.407" x2="0.960693" y2="160.407" gradientUnits="userSpaceOnUse">
<stop stop-color="#230E67" stop-opacity="0.5" style="stop-color:#230E67;stop-color:color(display-p3 0.1373 0.0549 0.4039);stop-opacity:0.5;"/>
<stop offset="0.85" stop-color="#F7F0FF" stop-opacity="0.2" style="stop-color:#F7F0FF;stop-color:color(display-p3 0.9686 0.9412 1.0000);stop-opacity:0.2;"/>
<stop offset="1" stop-color="#230E67" stop-opacity="0.4" style="stop-color:#230E67;stop-color:color(display-p3 0.1373 0.0549 0.4039);stop-opacity:0.4;"/>
</linearGradient>
<linearGradient id="paint2_linear_4604_1976" x1="24.9607" y1="160.407" x2="0.960693" y2="160.407" gradientUnits="userSpaceOnUse">
<stop stop-color="#F7F0FF" stop-opacity="0" style="stop-color:none;stop-opacity:0;"/>
<stop offset="1" stop-color="#230E67" stop-opacity="0.4" style="stop-color:#230E67;stop-color:color(display-p3 0.1373 0.0549 0.4039);stop-opacity:0.4;"/>
</linearGradient>
<linearGradient id="paint3_linear_4604_1976" x1="32.4604" y1="160.407" x2="21.7938" y2="160.407" gradientUnits="userSpaceOnUse">
<stop offset="0.5" stop-color="#E9DBFF" stop-opacity="0" style="stop-color:none;stop-opacity:0;"/>
<stop offset="1" stop-color="#F7F0FF" style="stop-color:#F7F0FF;stop-color:color(display-p3 0.9686 0.9412 1.0000);stop-opacity:1;"/>
</linearGradient>
<clipPath id="clip0_4604_1976">
<rect x="0.960693" y="0.406982" width="240" height="320" rx="4" fill="white" style="fill:white;fill-opacity:1;"/>
</clipPath>
</defs>
</svg>
